<svg xmlns="http://www.w3.org/2000/svg" width="1024" height="1024" viewBox="0 0 1024 1024"
    fill="none">
    <g clipPath="url(#clip0_1202_175)">
        <path
            d="M0 0C337.92 0 675.84 0 1024 0C1024 337.92 1024 675.84 1024 1024C686.08 1024 348.16 1024 0 1024C0 686.08 0 348.16 0 0Z"
            fill="#060707" />
        <path
            d="M512.246 393.7C514.478 393.709 514.478 393.709 516.755 393.718C528.26 393.93 537.547 395.397 548.066 400.094C549.887 400.832 549.887 400.832 551.744 401.584C561.595 405.962 569.221 412.689 577.128 419.857C581.016 418.192 584.125 415.784 587.443 413.193C609.184 396.344 631.312 392.236 658.504 394.282C665.1 395.296 670.992 397.414 677.104 400.094C678.348 400.613 679.592 401.131 680.873 401.665C689.643 405.66 696.723 411.092 703.842 417.532C704.85 418.431 705.859 419.33 706.898 420.257C714.479 427.387 719.729 435.2 724.767 444.27C725.244 445.094 725.72 445.918 726.211 446.767C737.305 467.149 738.477 493.313 732.203 515.361C730.207 521.672 727.684 527.663 724.694 533.565C724.336 534.286 723.977 535.007 723.607 535.75C714.555 552.238 699.072 565.569 685.823 578.612C683.309 581.094 680.796 583.578 678.287 586.065C676.743 587.595 675.196 589.122 673.645 590.645C669.867 594.382 666.408 598.157 663.154 602.371C660.393 605.273 657.684 607.92 654.508 610.363C651.337 612.993 648.879 615.826 646.248 618.977C643.897 621.744 641.338 624.247 638.741 626.783C637.881 627.669 637.021 628.555 636.135 629.467C634.728 630.908 634.728 630.908 633.292 632.378C632.401 633.297 631.509 634.215 630.59 635.162C628.279 637.246 628.279 637.246 625.954 637.246C625.57 638.397 625.187 639.548 624.791 640.734C623.073 642.417 623.073 642.417 620.832 644.244C616.87 647.602 613.194 651.122 609.57 654.843C608.025 656.424 608.025 656.424 606.45 658.037C604.333 660.216 602.223 662.402 600.12 664.594C593.655 671.186 588.138 676.475 578.909 678.592C562.933 678.561 550.883 662.248 540.428 651.768C536.72 648.046 533.019 644.318 529.32 640.588C525.615 636.852 521.906 633.12 518.195 629.39C517.364 628.549 516.533 627.709 515.677 626.843C511.816 622.964 507.916 619.215 503.763 615.649C499.391 611.88 495.501 607.817 491.63 603.542C485.943 597.358 480.141 591.328 474.156 585.433C473.422 584.709 472.689 583.985 471.934 583.239C468.953 580.299 465.969 577.364 462.973 574.44C443.03 554.943 428.704 535.373 421.352 508.208C421.144 507.488 420.937 506.767 420.722 506.026C415.493 481.787 422.577 455.825 435.437 435.216C438.24 431.039 441.335 427.163 444.603 423.344C445.314 422.502 446.026 421.66 446.76 420.792C463.51 402.578 488.003 393.576 512.246 393.7Z"
            fill="#00CDE1" />
        <path
            d="M435.27 225.223C438.545 225.209 441.818 225.152 445.092 225.094C447.199 225.083 449.306 225.074 451.413 225.069C452.863 225.035 452.863 225.035 454.342 225C458.917 225.036 462.324 225.389 466.136 228.054C469.775 232.449 470.009 235.828 469.9 241.303C469.906 242.702 469.906 242.702 469.912 244.129C469.911 246.095 469.894 248.061 469.86 250.027C469.814 253.029 469.836 256.025 469.866 259.027C469.857 260.942 469.844 262.856 469.827 264.771C469.835 265.664 469.843 266.556 469.852 267.476C469.737 271.862 469.14 274.357 466.669 278.014C462.23 281.012 458.592 281.165 453.411 281.096C451.985 281.114 451.985 281.114 450.529 281.133C447.487 281.167 444.447 281.163 441.405 281.155C413.798 280.277 413.798 280.277 388.002 288.276C387.263 288.66 386.523 289.044 385.761 289.44C372.15 296.744 363.613 308.917 358.576 323.369C356.175 334.648 355.899 345.931 355.861 357.409C355.851 360.282 355.827 363.154 355.8 366.027C355.745 372.127 355.706 378.228 355.67 384.328C355.628 391.406 355.579 398.485 355.512 405.563C355.489 408.359 355.479 411.155 355.47 413.951C355.274 442.232 349.436 467.46 330.676 489.608C330.072 490.379 329.468 491.151 328.846 491.946C323.078 499.055 315.982 504.083 308.588 509.37C307.035 510.528 305.483 511.689 303.938 512.858C304.934 513.496 304.934 513.496 305.95 514.147C330.551 530.574 347.395 553.359 353.926 582.608C354.898 588.436 355.269 594.122 355.29 600.018C355.298 600.908 355.306 601.798 355.314 602.715C355.33 604.635 355.344 606.556 355.356 608.476C355.375 611.534 355.402 614.592 355.431 617.65C355.513 626.34 355.583 635.031 355.643 643.722C355.68 649.053 355.728 654.384 355.783 659.715C355.801 661.727 355.815 663.74 355.825 665.752C355.937 687.681 356.88 706.184 370.201 724.434C371.222 725.859 371.222 725.859 372.263 727.313C375.31 730.767 378.69 733.187 382.553 735.623C383.271 736.08 383.988 736.538 384.728 737.008C390.48 740.552 396.104 742.865 402.751 744.197C403.65 744.395 404.548 744.594 405.474 744.798C408.402 745.33 411.07 745.518 414.04 745.543C415.092 745.555 416.143 745.567 417.227 745.579C418.348 745.587 419.47 745.596 420.625 745.605C423.017 745.637 425.408 745.671 427.8 745.705C431.558 745.753 435.315 745.795 439.073 745.826C442.708 745.858 446.343 745.911 449.978 745.968C451.661 745.974 451.661 745.974 453.377 745.979C459.708 746.095 464.304 746.462 469.014 751.172C469.161 754.386 469.234 757.57 469.251 760.785C469.257 761.753 469.264 762.721 469.271 763.718C469.282 765.771 469.289 767.825 469.294 769.878C469.305 773.016 469.341 776.154 469.378 779.292C469.385 781.285 469.391 783.278 469.396 785.271C469.417 786.679 469.417 786.679 469.439 788.115C469.424 791.957 469.303 794.81 467.465 798.229C464.239 801.172 461.131 801.31 456.96 801.347C455.934 801.358 454.908 801.37 453.851 801.381C452.183 801.388 452.183 801.388 450.482 801.396C449.324 801.403 448.166 801.409 446.973 801.416C444.509 801.427 442.046 801.435 439.582 801.439C435.885 801.45 432.189 801.486 428.492 801.523C389.452 801.727 357.029 792.105 328.832 764.505C319.48 754.673 312.289 742.903 307.426 730.247C306.936 729.003 306.446 727.759 305.941 726.478C302.637 717.725 300.33 709.319 299.288 700.022C299.194 699.202 299.1 698.382 299.003 697.537C298.075 688.58 297.92 679.657 297.859 670.663C297.839 667.928 297.812 665.193 297.783 662.457C297.702 654.69 297.631 646.922 297.571 639.154C297.534 634.375 297.486 629.597 297.432 624.818C297.413 623.018 297.399 621.217 297.389 619.417C297.404 596.726 297.404 596.726 289.988 575.633C289.413 574.593 288.837 573.553 288.244 572.482C280.549 559.478 268.811 548.854 253.913 544.759C250.033 543.886 246.168 543.222 242.234 542.624C241.114 542.392 239.993 542.16 238.838 541.92C234.72 533.685 236.296 521.852 236.297 512.769C236.295 510.231 236.273 507.694 236.252 505.156C236.248 503.527 236.246 501.899 236.245 500.27C236.24 498.809 236.235 497.347 236.23 495.841C236.505 492.039 237.063 489.476 238.838 486.12C242.912 483.877 247.233 483.212 251.771 482.342C267.577 478.724 279.345 469.687 288.099 456.04C294.749 444.077 297.128 431.709 297.146 418.17C297.152 417.222 297.158 416.273 297.164 415.296C297.177 413.248 297.187 411.2 297.195 409.152C297.209 405.894 297.231 402.637 297.257 399.379C297.328 390.12 297.391 380.861 297.43 371.602C297.454 365.924 297.496 360.246 297.547 354.569C297.563 352.422 297.573 350.276 297.577 348.129C297.641 314.783 306.993 285.124 330.385 260.521C344.69 246.637 360.845 237.835 379.501 231.531C380.591 231.158 381.68 230.784 382.803 230.4C399.552 225.264 417.9 225.259 435.27 225.223Z"
            fill="#00CDE2" />
        <path
            d="M535.451 452.327C542.262 457.268 547.919 463.505 553.733 469.554C555.676 471.561 557.622 473.564 559.575 475.561C560.779 476.794 561.978 478.033 563.169 479.279C567.777 484.016 571.293 486.442 577.928 486.774C589.326 486.572 597.022 475.632 604.393 468.033C627.091 444.742 627.091 444.742 642.856 444.16C655.647 444.952 666.293 451.563 674.998 460.69C682.407 469.84 685.704 481.225 685.065 492.822C682.114 518.152 659.405 535.38 642.434 552.292C640.575 554.148 638.717 556.005 636.859 557.862C632.013 562.703 627.164 567.541 622.314 572.378C617.347 577.333 612.384 582.291 607.42 587.249C597.714 596.943 588.004 606.633 578.291 616.321C575.009 614.739 572.623 613.261 570.06 610.659C569.392 609.988 568.724 609.316 568.036 608.624C567.326 607.898 566.616 607.173 565.885 606.426C564.767 605.298 564.767 605.298 563.626 604.148C561.243 601.745 558.868 599.334 556.494 596.921C554.136 594.531 551.776 592.142 549.412 589.756C547.944 588.274 546.479 586.789 545.018 585.3C540.707 580.941 536.237 576.853 531.598 572.847C528.882 570.472 526.31 567.978 523.758 565.429C522.776 564.448 521.793 563.468 520.781 562.457C519.787 561.458 518.793 560.459 517.768 559.43C516.77 558.436 515.771 557.442 514.742 556.417C509.625 551.293 504.714 546.084 499.998 540.59C497.443 537.719 494.703 535.077 491.929 532.419C480.534 521.478 470.157 508.444 469.742 491.86C469.842 489.943 469.987 488.029 470.178 486.12C470.261 485.189 470.343 484.258 470.428 483.3C472.171 471.021 479.076 460.865 488.551 453.124C504.17 441.619 519.329 442.447 535.451 452.327Z"
            fill="#070707" />
        <path
            d="M682.133 670.658C683.172 670.651 684.212 670.643 685.283 670.636C686.971 670.643 686.971 670.643 688.692 670.65C689.844 670.648 690.997 670.646 692.184 670.643C694.623 670.642 697.062 670.646 699.502 670.656C703.245 670.668 706.987 670.656 710.73 670.641C713.096 670.642 715.462 670.645 717.827 670.65C718.952 670.645 720.077 670.641 721.237 670.636C722.276 670.643 723.316 670.65 724.387 670.658C725.304 670.66 726.221 670.662 727.166 670.664C729.416 670.959 729.416 670.959 731.741 673.284C736.934 697.557 726.091 727.015 713.509 747.362C695.555 774.189 668.582 792.425 637.108 799.459C624.56 801.809 611.859 801.633 599.136 801.654C595.123 801.668 591.112 801.726 587.1 801.784C584.539 801.795 581.977 801.804 579.416 801.809C578.222 801.832 577.028 801.855 575.798 801.878C570.489 801.844 567.527 801.721 563.002 798.776C560.347 794.541 560.068 791.188 560.203 786.338C560.206 785.482 560.209 784.627 560.211 783.746C560.223 781.944 560.248 780.142 560.286 778.341C560.344 775.593 560.358 772.847 560.364 770.099C560.381 768.343 560.4 766.587 560.421 764.831C560.427 764.015 560.434 763.199 560.44 762.358C560.55 757.773 560.841 754.002 563.178 750.009C568.316 745.399 574.24 746.029 580.765 746.05C581.911 746.037 583.056 746.024 584.237 746.011C587.898 745.972 591.558 745.953 595.219 745.941C627.946 745.912 627.946 745.912 655.96 730.101C669.035 715.559 672.568 700.461 673.926 681.519C674.005 680.49 674.084 679.461 674.165 678.402C674.228 677.472 674.291 676.543 674.356 675.586C675.229 670.824 677.909 670.666 682.133 670.658Z"
            fill="#00CDE2" />
        <path
            d="M580.992 225.523C581.945 225.519 582.898 225.515 583.88 225.511C585.903 225.505 587.927 225.502 589.951 225.503C592.976 225.5 596.001 225.479 599.027 225.457C637.601 225.325 671.961 234.62 700.354 261.756C721.09 283.115 731.865 310.989 732.177 340.588C732.193 341.596 732.21 342.603 732.226 343.64C732.219 344.583 732.212 345.525 732.204 346.496C732.201 347.334 732.197 348.171 732.193 349.034C731.598 351.977 730.579 352.889 728.254 354.757C725.908 355.192 725.908 355.192 723.199 355.189C722.183 355.197 721.167 355.204 720.12 355.211C718.479 355.195 718.479 355.195 716.806 355.179C715.118 355.18 715.118 355.18 713.397 355.181C711.02 355.178 708.642 355.167 706.265 355.147C702.616 355.12 698.968 355.123 695.32 355.131C693.012 355.125 690.705 355.116 688.397 355.106C687.301 355.107 686.205 355.108 685.076 355.109C684.063 355.098 683.051 355.087 682.007 355.076C680.668 355.068 680.668 355.068 679.301 355.06C677.103 354.757 677.103 354.757 674.778 352.431C674.375 350.148 674.375 350.148 674.206 347.355C674.097 345.82 674.097 345.82 673.985 344.254C673.911 343.165 673.837 342.075 673.761 340.952C672.278 323.194 667.666 308.759 653.853 296.631C647.712 291.466 641.561 287.913 634.091 285.006C632.436 284.323 632.436 284.323 630.748 283.626C621.661 281.263 612.191 281.432 602.857 281.355C601.825 281.344 600.792 281.333 599.728 281.321C593.247 281.251 593.247 281.251 586.765 281.227C583.579 281.223 580.395 281.183 577.209 281.137C576.237 281.145 575.265 281.153 574.263 281.162C569.501 281.062 567.193 280.71 563.148 277.996C560.251 273.639 560.012 270.094 560.081 265.025C560.075 264.118 560.069 263.212 560.064 262.277C560.06 260.366 560.07 258.455 560.095 256.544C560.126 253.626 560.095 250.714 560.058 247.797C560.062 245.935 560.069 244.073 560.081 242.211C560.069 241.344 560.057 240.477 560.045 239.583C560.147 235.035 560.696 232.894 563.516 229.265C568.975 225.132 574.339 225.532 580.992 225.523Z"
            fill="#00CDE2" />
        <path
            d="M580.847 225.523C581.809 225.519 582.77 225.515 583.761 225.511C585.808 225.505 587.856 225.502 589.903 225.503C592.975 225.5 596.046 225.479 599.118 225.457C610.986 225.419 622.374 226.076 634.091 228.043C634.091 228.427 634.091 228.81 634.091 229.206C612.991 229.206 591.892 229.206 570.153 229.206C569.769 228.438 569.385 227.671 568.99 226.881C572.713 225.019 576.758 225.528 580.847 225.523Z"
            fill="#01C5D4" />
        <path
            d="M501.564 390.794C504.423 390.7 507.279 390.631 510.138 390.576C510.95 390.547 511.762 390.518 512.599 390.488C514.961 390.454 514.961 390.454 519.002 390.794C519.769 391.945 520.537 393.096 521.327 394.282C515.189 394.282 509.051 394.282 502.727 394.282C502.343 393.131 501.96 391.98 501.564 390.794Z"
            fill="#073A3E" />
        <path
            d="M673.615 589.583C673.999 590.734 674.382 591.885 674.777 593.071C671.677 596.171 668.577 599.271 665.477 602.371C664.71 601.987 663.943 601.604 663.152 601.208C666.605 597.372 670.058 593.536 673.615 589.583ZM660.827 602.371C661.595 602.754 662.362 603.138 663.152 603.533C662.002 604.684 660.851 605.835 659.665 607.021C658.898 606.637 658.13 606.254 657.34 605.858C658.491 604.707 659.642 603.557 660.827 602.371Z"
            fill="#071C20" />
        <path
            d="M681.752 483.795C682.903 484.179 684.054 484.562 685.24 484.957C684.856 488.794 684.473 492.63 684.077 496.583C681.752 494.257 681.752 494.257 681.525 491.742C681.552 490.798 681.579 489.854 681.607 488.881C681.628 487.931 681.649 486.981 681.671 486.002C681.698 485.274 681.725 484.545 681.752 483.795Z"
            fill="#0A1215" />
        <path
            d="M609.679 653.521C609.679 658.065 607.928 659.469 605.029 662.821C603.878 662.438 602.727 662.054 601.541 661.659C604.226 658.973 606.912 656.288 609.679 653.521Z"
            fill="#071F23" />
        <path
            d="M342.302 250.131C343.069 250.514 343.836 250.898 344.627 251.293C342.325 253.979 340.023 256.664 337.652 259.431C336.501 258.663 335.35 257.896 334.164 257.106C336.849 254.804 339.535 252.502 342.302 250.131Z"
            fill="#01E5F4" />
        <path
            d="M620.14 646.546C620.14 647.313 620.14 648.081 620.14 648.871C617.86 650.486 615.534 652.04 613.165 653.521C612.398 653.138 611.63 652.754 610.84 652.359C616.216 646.546 616.216 646.546 620.14 646.546Z"
            fill="#062226" />
        <path
            d="M538.764 580.283C542.439 581.876 543.405 582.596 545.739 586.096C544.588 586.671 544.588 586.671 543.414 587.258C541.815 585.759 540.266 584.204 538.764 582.608C538.764 581.841 538.764 581.074 538.764 580.283Z"
            fill="#00C2D0" />
        <path
            d="M352.763 445.432C353.146 445.432 353.53 445.432 353.925 445.432C353.925 448.118 353.925 450.803 353.925 453.57C352.774 453.57 351.623 453.57 350.438 453.57C351.455 446.74 351.455 446.74 352.763 445.432Z"
            fill="#061214" />
    </g>
    <defs>
        <clipPath id="clip0_1202_175">
            <rect width="1024" height="1024" fill="white" />
        </clipPath>
    </defs>
</svg>